<svg xmlns="http://www.w3.org/2000/svg" xmlns:xlink="http://www.w3.org/1999/xlink" width="300" height="182.3" xmlns:v="https://vecta.io/nano"><g fill="#a18754"><path d="M11.2 127.3c1-2 2.4-3.8 4.1-5.2s3.8-2.5 6.2-3.2 4.9-1.1 7.6-1.1c1.6 0 3 .1 4.3.3s2.5.5 3.5.8 1.9.7 2.7 1l2 .9-1.4 4.5h-.5c-1.5-1.7-3.3-2.9-5.3-3.5a20.95 20.95 0 0 0-6.1-.9c-2 0-3.9.3-5.7.8s-3.4 1.3-4.8 2.4-2.5 2.4-3.3 4.1c-.8 1.6-1.2 3.5-1.2 5.7s.4 4.1 1.2 5.7 1.9 2.9 3.3 4 3 1.9 4.8 2.4 3.7.8 5.7.8c2.4 0 4.8-.4 7-1.2s4.2-2.2 5.9-4.2h.5l-2.3 5.9c-3.1 1.9-6.8 2.8-11.1 2.8-2.4 0-4.8-.3-7-1a16.29 16.29 0 0 1-5.9-2.9c-1.7-1.3-3.1-2.9-4.1-4.9s-1.5-4.2-1.5-6.9c-.1-2.8.4-5.1 1.4-7.1z"/><use xlink:href="#B"/><path d="M122.9 132.3c.4.3.8.4 1.3.5.5 0 1 .1 1.5.1h5.9c1.2 0 2.1-.2 3-.5.8-.3 1.5-.8 2-1.3s.9-1.2 1.1-1.9.4-1.4.4-2.2c0-1.6-.5-2.9-1.6-4s-2.7-1.6-4.9-1.6h-13.8V140v1.9c0 .9.1 1.8.2 2.7l.4 2.6c.2.8.5 1.4.9 1.8v.4h-6.6v-.4c.4-.3.7-.9.9-1.8.2-.8.4-1.7.5-2.6l.2-2.7V140v-15.5-1.4c0-.5-.1-1.1-.2-1.6s-.3-1-.5-1.5-.5-.9-.9-1.3v-.4h19.1c1.5 0 2.8.2 4 .7s2.2 1.1 3.1 1.9c.8.8 1.5 1.7 2 2.8s.7 2.2.7 3.5a8.29 8.29 0 0 1-.6 3.2c-.4 1-1 1.8-1.7 2.5s-1.6 1.3-2.5 1.7c-1 .4-2 .7-3.2.9l-.1.2 2.7 4 2 2.9 1.8 2.5c.6.8 1.2 1.5 1.8 2.1s1.3 1.3 2.1 1.9v.3c-.8.4-1.6.6-2.3.6s-1.3-.1-1.8-.4c-.5-.2-1.1-.6-1.5-.9-.5-.4-.9-.8-1.3-1.3l-1.1-1.5-6.6-9.7h-8.6l-.2-.3 2.1-3.4h.3z"/><use xlink:href="#C"/><use xlink:href="#B" x="148.7"/><use xlink:href="#C" x="99.9"/><path d="M217.5 49.1s-.1 0 0 0V49v-.1c-2.5-14.3-11.9-26.6-25.2-32.7-5.7-2.7-12.2-4-19.2-4-6.2 0-12.8 1.1-19.3 3.2-2.1-1.4-4.3-2.6-6.7-3.5-4.9-2-10.1-3.1-15.4-3.1-2.7 0-5.3.3-8 .8a1.27 1.27 0 0 0-.9.7c-.2.4-.2.8 0 1.1.1.3 3.4 7.6 12.9 12.4-.3.2-.7.4-1 .6-3 2-6.1 3.9-9.3 5.5-6.6-4.2-12.8-6.9-18.6-8.2-4.9-1-9.4-1-13.5.1-7 1.9-10.3 6.2-10.5 6.5h0c-.4.5-.3 1.3.1 1.7.3.3 8.7 8.6 23.1 16.9 1.3.8 2.6 1.5 3.9 2.2-1.3.7-2.6 1.4-3.9 2.2-14.4 8.3-22.8 16.6-23.1 16.9a1.24 1.24 0 0 0-.1 1.7h0c.2.3 3.5 4.6 10.5 6.5 4.1 1.1 8.6 1.1 13.5.1 5.8-1.2 12-4 18.6-8.2 3.2 1.7 6.3 3.6 9.3 5.5.3.2.7.4 1 .6-9.5 4.8-12.8 12-12.9 12.4-.2.4-.1.8 0 1.1a1.27 1.27 0 0 0 .9.7c2.6.5 5.3.8 8 .8 5.2 0 10.5-1 15.4-3.1 2.4-1 4.6-2.2 6.7-3.5 6.5 2.1 13.1 3.2 19.3 3.2 7 0 13.4-1.4 19.2-4 13.2-6.1 22.6-18.4 25.2-32.7v-.1-.1h0zm-47.3-11.9c2.7.1 5.4.4 8 .7-1.2.8-2.6 1.6-4 2.2-1 .4-2 .8-3 1.1-.2-1.3-.6-2.6-1-4zm1.1 19.8c1 .3 2.1.7 3 1.1 1.4.6 2.7 1.3 4 2.2-2.7.4-5.4.6-8 .7.3-1.3.7-2.6 1-4zm4-1.3c-1.2-.5-2.4-.9-3.7-1.3a45.33 45.33 0 0 0 .3-5.2c0-1.8-.1-3.5-.3-5.2 1.3-.4 2.5-.8 3.7-1.3 2.4-1.1 4.6-2.4 6.6-4.1 10.6 1.8 21.1 5.4 31.3 10.6-10.2 5.2-20.7 8.8-31.3 10.6-1.9-1.7-4.1-3-6.6-4.1zm17.4-36.3c10.8 5.6 18.7 15.5 21.6 27.3-9.7-5-19.7-8.5-29.9-10.4 4-4.3 6.8-10 8.3-16.9zm-11.5 16.3c-3.9-.6-7.9-1-11.9-1.2-1-2.6-2.3-5.1-3.8-7.5 7.5-1.2 15.7-3.7 24.5-7.4-1.7 6.8-4.6 12.2-8.8 16.1zm-12.5 6.2c-7.2 1.5-15.7.6-24.7-2.6 6.6-1.4 13.8-2.2 21.2-2.2h2.2c.6 1.6 1 3.2 1.3 4.8zm4.4-27.1c5.5 0 10.6.9 15.2 2.6-9.5 4-17.7 6.2-24.6 7.2-2.1-2.8-4.5-5.2-7.2-7.3 5.6-1.6 11.2-2.5 16.6-2.5zM160.6 25c-8 .8-14.2-.1-19-1.6 3.8-2 7.7-3.7 11.7-5.1 2.7 1.9 5.2 4.1 7.3 6.7zM126 11.8c8.6-1.3 17.2.4 24.5 4.6-4.1 1.5-8.2 3.4-12.1 5.7-.1 0-.1-.1-.2-.1-7-3.1-10.7-7.8-12.2-10.2zm10.1 14.8c.8-.5 1.6-1 2.5-1.5.1 0 .2.1.3.1 6.1 2.4 13.2 3.2 21.1 2.6l2.6-.3c.2.2.3.5.5.7 1.3 2 2.5 4.1 3.4 6.3h-1.2c-8.5 0-17.1 1.1-25.7 3.2-3.8-1.6-7.7-3.7-11.6-6.1 2.8-1.6 5.5-3.3 8.1-5zm-41.9-2.2c7.9-2 17.7.4 28.4 6.9-5.3 2.4-10.8 4-16.8 4-2.2 0-4.4-.2-6.6-.7-5.1-1-9.8-3-13.4-5.7 1.3-1.2 4-3.4 8.4-4.5zm13.2 20.3c-5.1-2.9-9.4-5.9-12.9-8.5 1.4.4 2.8.8 4.2 1.1 2.4.5 4.8.7 7.1.7 7 0 13.4-2.1 19.4-5 3.4 2.2 6.8 4.1 10.3 5.7-1.2.3-2.3.7-3.5 1a131.61 131.61 0 0 0-19.2 7.9l-5.4-2.9zm32-4.3c10.7 4.4 21 5.9 29.7 4.1a35.53 35.53 0 0 1 0 9.2c-8.7-1.8-19-.3-29.7 4.1-8.9-2.3-16.9-5.4-23.6-8.7 6.7-3.2 14.7-6.4 23.6-8.7zm29.3 16c-.3 1.6-.7 3.2-1.3 4.8h-2.2c-7.5 0-14.6-.9-21.2-2.2 9-3.2 17.5-4.1 24.7-2.6zM94.2 73.9c-4.3-1.1-7.1-3.3-8.4-4.6 3.6-2.7 8.3-4.7 13.4-5.7 2.2-.4 4.4-.7 6.6-.7 5.9 0 11.5 1.6 16.8 4-10.7 6.7-20.5 9.1-28.4 7zm31-8.6c-6-3-12.4-5-19.4-5-2.4 0-4.8.2-7.1.7-1.4.3-2.8.6-4.2 1.1 3.5-2.6 7.8-5.5 12.9-8.5a130.92 130.92 0 0 1 5.4-3c6.3 3.2 12.7 5.9 19.2 7.9a45.95 45.95 0 0 0 3.5 1c-3.4 1.7-6.8 3.6-10.3 5.8zm2.8 1.4c3.9-2.4 7.8-4.4 11.6-6.1 8.6 2.1 17.2 3.2 25.7 3.2h1.2c-.9 2.2-2.1 4.3-3.4 6.3-.2.2-.3.5-.5.7l-2.6-.3c-7.9-.7-15 .2-21.1 2.6-.1 0-.2.1-.3.1-.8-.5-1.7-1-2.5-1.5-2.6-1.7-5.3-3.4-8.1-5zm-2 19.8c1.5-2.4 5.2-7 12.2-10.2.1 0 .1-.1.2-.1 3.9 2.2 8 4.1 12.1 5.7-7.2 4.2-15.8 5.9-24.5 4.6zm27.4-6.5c-4-1.3-7.9-3-11.7-5.1 4.7-1.5 10.9-2.4 19-1.6-2.2 2.6-4.7 4.8-7.3 6.7zm19.7 3.5c-5.3 0-11-.9-16.6-2.5 2.7-2.1 5.1-4.6 7.2-7.3 6.9 1 15.1 3.2 24.6 7.2-4.6 1.7-9.8 2.6-15.2 2.6zm-7.6-12.3c1.6-2.4 2.8-4.9 3.8-7.5 4-.2 7.9-.6 11.9-1.2 4.2 3.9 7.2 9.3 8.8 16.1-8.8-3.6-17-6.1-24.5-7.4zm27.2 7.7c-1.5-6.9-4.3-12.6-8.3-16.9 10.1-1.9 20.1-5.4 29.9-10.4-3 11.8-10.8 21.8-21.6 27.3zM73 175.3v.8h-6.3v-7.7h1.6v6.9H73zm10.4.2c.4 0 .7 0 1-.1s.5-.3.7-.5.4-.5.5-.8a3.73 3.73 0 0 0 .2-1.2v-4.6h1.6v4.6c0 1.1-.3 2-1 2.5-.7.6-1.7.8-2.9.8-1.3 0-2.2-.3-2.9-.8s-1-1.4-1-2.5v-4.6H81v4.6c0 .5.1.8.2 1.2.1.3.3.6.5.8a3.04 3.04 0 0 0 .7.5c.3.1.6.1 1 .1zm15.8-3.4l3.3 3.9h-1.9l-2.3-2.8L96 176h-2l3.3-3.9-3.1-3.8h1.9l2.2 2.6 2.2-2.6h1.9l-3.2 3.8zm13.9 3.4c.4 0 .7 0 1-.1s.5-.3.7-.5.4-.5.5-.8a3.73 3.73 0 0 0 .2-1.2v-4.6h1.6v4.6c0 1.1-.3 2-1 2.5-.7.6-1.7.8-2.9.8-1.3 0-2.2-.3-2.9-.8s-1-1.4-1-2.5v-4.6h1.6v4.6c0 .5.1.8.2 1.2.1.3.3.6.5.8a3.04 3.04 0 0 0 .7.5c.1.1.5.1.8.1zm15.4-7.1c.5 0 1 .1 1.5.2.4.1.8.3 1.1.5s.5.5.7.8.2.7.2 1.1c0 .6-.1 1.1-.4 1.5s-.7.7-1.3.9l1.8 2.6h-1.8l-1.6-2.3h-.2-2.4v2.3h-1.6v-7.7h4zm-2.3.8v3.7h2.4c.6 0 1-.2 1.3-.5s.5-.8.5-1.4-.2-1.1-.5-1.4-.8-.5-1.3-.5h-2.4zm17.1 4.6v2.3h-1.6v-2.3l-3.6-5.4h1.8l2.6 3.9h.1l2.6-3.9h1.8l-3.7 5.4zm27.7-5.4v7.7h-1.6v-3.4h-4.5v3.4h-1.6v-7.7h1.6v3.5h4.5v-3.5h1.6zm11.7-.2c.7 0 1.3.1 1.8.3s1 .4 1.4.8c.4.3.7.8.9 1.3s.3 1.1.3 1.7c0 .7-.1 1.2-.3 1.7s-.5.9-.9 1.3c-.4.3-.8.6-1.4.8-.5.2-1.1.3-1.8.3s-1.3-.1-1.8-.3-1-.4-1.4-.8c-.4-.3-.7-.8-.9-1.3s-.3-1.1-.3-1.7c0-.7.1-1.2.3-1.7s.5-.9.9-1.3c.4-.3.8-.6 1.4-.8.5-.2 1.1-.3 1.8-.3zm0 .7c-.4 0-.7.1-1.1.2s-.6.3-.9.6-.4.6-.6 1c-.1.4-.2.9-.2 1.5s.1 1.1.2 1.5.3.8.6 1c.2.3.5.5.9.6s.7.2 1.1.2.7-.1 1.1-.2c.3-.1.6-.3.9-.6l.6-1c.1-.4.2-.9.2-1.5s-.1-1.1-.2-1.5-.3-.8-.6-1c-.2-.3-.5-.5-.9-.6s-.7-.2-1.1-.2zm17.8.3h-3v6.9h-1.6v-6.9h-3v-.8h7.5v.8zm8.4 0v2.5h4v.8h-4v2.7h5.1v.8h-6.7v-7.7h6.7v.8h-5.1zm18.5 6.1v.8H221v-7.7h1.6v6.9h4.8z"/></g><defs ><path id="B" d="M67.2 118.7c-.4.3-.7.8-.8 1.2-.2.5-.3 1-.4 1.6-.1.5-.1 1.1-.2 1.6v1.5V139a6.71 6.71 0 0 0 .6 2.8c.4.9 1.1 1.7 2 2.4s2 1.2 3.4 1.7c1.4.4 3 .6 5 .6 1.9 0 3.5-.2 4.9-.6s2.5-1 3.4-1.7 1.6-1.5 2-2.4.7-1.8.7-2.8v-14.4-1.5c0-.5-.1-1.1-.2-1.6a9.83 9.83 0 0 0-.5-1.6 2.73 2.73 0 0 0-.9-1.2v-.4h6.7v.4c-.4.3-.7.8-.9 1.2-.2.5-.4 1-.5 1.6-.1.5-.2 1.1-.2 1.6v1.5V138c0 2.1-.4 3.9-1.1 5.4s-1.8 2.7-3.1 3.7-2.9 1.7-4.7 2.1c-1.8.5-3.7.7-5.9.7-2.1 0-4-.2-5.8-.7s-3.3-1.2-4.6-2.1c-1.3-1-2.3-2.2-3-3.7s-1-3.3-1-5.4v-13.4-1.5c0-.5-.1-1.1-.2-1.6a9.83 9.83 0 0 0-.5-1.6c-.2-.5-.6-.9-1-1.2v-.4h6.7v.4z"/><path id="C" d="M187 124.8c-.4-.6-1-1.1-1.9-1.6-.8-.5-1.8-.9-2.9-1.2l-3.4-.8a21.59 21.59 0 0 0-3.5-.3c-3.1 0-5.4.5-7.2 1.6-1.7 1.1-2.6 2.5-2.6 4.4 0 1 .3 1.8.9 2.3.6.6 1.4 1 2.4 1.4 1 .3 2.2.6 3.5.7 1.3.2 2.7.3 4.1.4l5 .6c1.6.2 3.1.6 4.5 1.2 1.3.6 2.4 1.4 3.2 2.4s1.2 2.4 1.2 4.1c0 3.2-1.3 5.6-3.9 7.2s-6.3 2.5-10.9 2.5c-1.7 0-3.4-.1-4.9-.4l-4.2-.9c-1.3-.4-2.4-.8-3.4-1.3s-1.9-.9-2.6-1.3l2-4.1h.4c.6.7 1.3 1.3 2.3 1.9s2.1 1.1 3.3 1.5 2.5.7 3.9 1l4.1.4c1.8 0 3.3-.2 4.6-.5s2.3-.7 3.1-1.3c.8-.5 1.4-1.2 1.8-1.9s.6-1.5.6-2.4c0-1-.3-1.7-.9-2.3s-1.3-1.1-2.3-1.4c-1-.4-2.1-.6-3.4-.8s-2.6-.3-3.9-.5l-5.1-.6c-1.7-.2-3.3-.6-4.6-1.1-1.4-.5-2.5-1.3-3.4-2.3s-1.3-2.3-1.3-4c0-1.5.3-2.8.9-4s1.5-2.2 2.7-3.1c1.2-.8 2.6-1.5 4.4-2 1.7-.5 3.7-.7 5.9-.7 3 0 5.5.3 7.7.9s4.2 1.3 6.1 2.2l-2.1 3.9h-.2z"/></defs></svg>